<?xml version="1.0" encoding="UTF-8"?>
<!DOCTYPE svg PUBLIC "-//W3C//DTD SVG 1.1//EN" "http://www.w3.org/Graphics/SVG/1.1/DTD/svg11.dtd">
<svg xmlns="http://www.w3.org/2000/svg" version="1.1" width="100px" height="104px" style="shape-rendering:geometricPrecision; text-rendering:geometricPrecision; image-rendering:optimizeQuality; fill-rule:evenodd; clip-rule:evenodd" xmlns:xlink="http://www.w3.org/1999/xlink">
<g><path style="opacity:0.837" fill="#fffcf9" d="M 70.5,20.5 C 69.7354,20.9234 68.9021,21.2568 68,21.5C 50.6155,12.7223 35.2821,15.3889 22,29.5C 15.5917,37.7998 13.2584,47.1331 15,57.5C 16.2785,61.8306 17.4452,66.1639 18.5,70.5C 17.4987,74.8168 16.9987,79.1501 17,83.5C 17.7247,84.0585 18.5581,84.3918 19.5,84.5C 27.3806,81.6097 35.0472,82.1097 42.5,86C 64.2509,87.9019 78.0843,78.4019 84,57.5C 85.3264,48.7996 83.8264,40.6329 79.5,33C 79.7432,32.0979 80.0766,31.2646 80.5,30.5C 82.0174,30.5106 83.1841,31.1772 84,32.5C 92.3425,51.2834 89.1758,67.7834 74.5,82C 64.9744,89.0481 54.3077,91.7148 42.5,90C 38.1892,88.7294 33.8559,87.5627 29.5,86.5C 14.1667,91.8333 9.16667,86.8333 14.5,71.5C 9.47807,59.2099 9.3114,46.8765 14,34.5C 24.3543,16.2624 39.8543,9.42904 60.5,14C 63.2442,14.8035 65.9109,15.8035 68.5,17C 69.8228,17.8159 70.4894,18.9826 70.5,20.5 Z"/></g>
<g><path style="opacity:0.997" fill="#fc9205" d="M 70.5,20.5 C 73.5,24.1667 76.8333,27.5 80.5,30.5C 80.0766,31.2646 79.7432,32.0979 79.5,33C 83.8264,40.6329 85.3264,48.7996 84,57.5C 78.0843,78.4019 64.2509,87.9019 42.5,86C 35.0472,82.1097 27.3806,81.6097 19.5,84.5C 18.5581,84.3918 17.7247,84.0585 17,83.5C 16.9987,79.1501 17.4987,74.8168 18.5,70.5C 17.4452,66.1639 16.2785,61.8306 15,57.5C 13.2584,47.1331 15.5917,37.7998 22,29.5C 35.2821,15.3889 50.6155,12.7223 68,21.5C 68.9021,21.2568 69.7354,20.9234 70.5,20.5 Z"/></g>
<g><path style="opacity:1" fill="#fffaf4" d="M 32.5,47.5 C 38.3133,47.062 39.98,49.562 37.5,55C 30.745,55.7558 29.0783,53.2558 32.5,47.5 Z"/></g>
<g><path style="opacity:1" fill="#fffefc" d="M 47.5,47.5 C 53.4877,47.664 54.821,50.164 51.5,55C 45.4034,55.1475 44.0701,52.6475 47.5,47.5 Z"/></g>
<g><path style="opacity:1" fill="#fffaf4" d="M 61.5,47.5 C 68.004,47.1377 69.6707,49.6377 66.5,55C 60.5933,55.7465 58.9267,53.2465 61.5,47.5 Z"/></g>
</svg>
