<?xml version="1.0" encoding="UTF-8"?>
<!DOCTYPE svg PUBLIC "-//W3C//DTD SVG 1.1//EN" "http://www.w3.org/Graphics/SVG/1.1/DTD/svg11.dtd">
<svg xmlns="http://www.w3.org/2000/svg" version="1.1" width="100px" height="104px" style="shape-rendering:geometricPrecision; text-rendering:geometricPrecision; image-rendering:optimizeQuality; fill-rule:evenodd; clip-rule:evenodd" xmlns:xlink="http://www.w3.org/1999/xlink">
<g><path style="opacity:0.788" fill="#a9aaa9" d="M 47.5,15.5 C 54.8746,15.6293 61.8746,17.2959 68.5,20.5C 69.4287,21.6888 69.762,23.0222 69.5,24.5C 65.1734,23.4489 60.84,22.2823 56.5,21C 37.2772,18.5219 23.7772,26.0219 16,43.5C 15.7305,46.2241 15.2305,48.8908 14.5,51.5C 15.5631,57.3548 17.2297,63.0214 19.5,68.5C 18.4112,72.0968 17.7445,75.7634 17.5,79.5C 21.7491,79.3967 25.9157,78.7301 30,77.5C 44.8567,83.7848 59.0233,82.6182 72.5,74C 79.8147,67.8709 83.8147,60.0375 84.5,50.5C 83.2279,44.3558 81.5613,38.3558 79.5,32.5C 83.1439,32.7077 85.3105,34.7077 86,38.5C 91.8287,62.3415 82.9954,77.8415 59.5,85C 49.4964,86.6887 39.6631,85.8554 30,82.5C 14.8342,87.3366 10.0009,82.5033 15.5,68C 5.86151,45.915 11.8615,29.5817 33.5,19C 38.1838,17.3473 42.8504,16.1807 47.5,15.5 Z"/></g>
<g><path style="opacity:0.625" fill="#a9aaa9" d="M 33.5,48.5 C 36.9563,49.5362 37.2896,51.2029 34.5,53.5C 32.2957,52.218 31.9624,50.5514 33.5,48.5 Z"/></g>
<g><path style="opacity:0.641" fill="#a9aaa9" d="M 48.5,48.5 C 51.9563,49.5362 52.2896,51.2029 49.5,53.5C 47.2957,52.218 46.9624,50.5514 48.5,48.5 Z"/></g>
<g><path style="opacity:0.625" fill="#a9aaa9" d="M 63.5,48.5 C 66.9563,49.5362 67.2896,51.2029 64.5,53.5C 62.2957,52.218 61.9624,50.5514 63.5,48.5 Z"/></g>
</svg>
