<?xml version="1.0" encoding="UTF-8"?>
<!DOCTYPE svg PUBLIC "-//W3C//DTD SVG 1.1//EN" "http://www.w3.org/Graphics/SVG/1.1/DTD/svg11.dtd">
<svg xmlns="http://www.w3.org/2000/svg" version="1.1" width="100px" height="104px" style="shape-rendering:geometricPrecision; text-rendering:geometricPrecision; image-rendering:optimizeQuality; fill-rule:evenodd; clip-rule:evenodd" xmlns:xlink="http://www.w3.org/1999/xlink">
<g><path style="opacity:0.876" fill="#fe9800" d="M 30.5,14.5 C 36.9552,14.15 43.2885,14.8167 49.5,16.5C 76.63,10.7928 88.7967,21.7928 86,49.5C 82.9827,59.0365 77.816,67.2031 70.5,74C 64.7794,78.7206 58.7794,83.054 52.5,87C 48.8798,87.8407 45.5464,87.174 42.5,85C 29.8434,77.344 20.3434,66.844 14,53.5C 12,45.5 12,37.5 14,29.5C 17.1901,21.8428 22.6901,16.8428 30.5,14.5 Z M 34.5,24.5 C 36.5273,24.3379 38.5273,24.5045 40.5,25C 43.2676,26.7153 46.2676,27.882 49.5,28.5C 52.9342,27.5518 56.2675,26.3851 59.5,25C 72.7508,25.9419 78.2508,33.1086 76,46.5C 70.1868,59.316 61.1868,69.316 49,76.5C 41.7366,71.2404 35.0699,65.2404 29,58.5C 22.2113,50.2607 20.8779,41.2607 25,31.5C 27.529,28.1151 30.6956,25.7818 34.5,24.5 Z"/></g>
<g><path style="opacity:1" fill="#fc9300" d="M 43.5,20.5 C 41.4086,20.6816 39.4086,20.3482 37.5,19.5C 34.5467,20.5924 31.5467,21.0924 28.5,21C 33.5635,18.0643 38.5635,17.8976 43.5,20.5 Z"/></g>
<g><path style="opacity:1" fill="#fd9300" d="M 55.5,20.5 C 60.4365,17.8976 65.4365,18.0643 70.5,21C 65.5601,20.6744 60.5601,20.5077 55.5,20.5 Z"/></g>
<g><path style="opacity:1" fill="#fc9300" d="M 43.5,20.5 C 45.677,20.5861 47.677,21.2528 49.5,22.5C 51.323,21.2528 53.323,20.5861 55.5,20.5C 51.5,24.5 47.5,24.5 43.5,20.5 Z"/></g>
<g><path style="opacity:1" fill="#fd9300" d="M 24.5,22.5 C 25.2389,22.369 25.9056,22.5357 26.5,23C 25,24.5 23.5,26 22,27.5C 22.0579,25.5646 22.8912,23.8979 24.5,22.5 Z"/></g>
<g><path style="opacity:1" fill="#fd9400" d="M 73.5,24.5 C 75.4959,23.3122 76.3293,23.9789 76,26.5C 75.2917,25.6195 74.4584,24.9528 73.5,24.5 Z"/></g>
<g><path style="opacity:0.841" fill="#fe9800" d="M 59.5,27.5 C 71.0317,27.8634 75.6984,33.6968 73.5,45C 67.6174,47.1296 64.1174,44.963 63,38.5C 57.7324,35.9951 56.5657,32.3285 59.5,27.5 Z"/></g>
<g><path style="opacity:1" fill="#fd9300" d="M 74.5,59.5 C 75.7125,60.4971 75.5458,61.4971 74,62.5C 73.5304,61.4232 73.6971,60.4232 74.5,59.5 Z"/></g>
<g><path style="opacity:1" fill="#fd9300" d="M 26.5,63.5 C 29.6306,66.1288 32.6306,68.9621 35.5,72C 34.8333,72.6667 34.1667,72.6667 33.5,72C 30.5532,69.5644 28.2199,66.7311 26.5,63.5 Z"/></g>
<g><path style="opacity:1" fill="#fd9300" d="M 70.5,64.5 C 71.525,64.8966 71.6917,65.5632 71,66.5C 69.2599,68.9535 67.0933,70.4535 64.5,71C 66.7059,68.9633 68.7059,66.7966 70.5,64.5 Z"/></g>
<g><path style="opacity:1" fill="#fc9300" d="M 37.5,75.5 C 38.4971,74.2875 39.4971,74.4542 40.5,76C 39.4232,76.4696 38.4232,76.3029 37.5,75.5 Z"/></g>
<g><path style="opacity:1" fill="#fc9300" d="M 59.5,74.5 C 61.9752,74.7467 61.9752,75.4134 59.5,76.5C 58.537,76.0302 58.537,75.3635 59.5,74.5 Z"/></g>
<g><path style="opacity:1" fill="#fc9300" d="M 44.5,79.5 C 43.2438,79.5386 42.2438,79.0386 41.5,78C 42.9976,77.4153 43.9976,77.9153 44.5,79.5 Z"/></g>
<g><path style="opacity:1" fill="#fd9300" d="M 54.5,79.5 C 55.0024,77.9153 56.0024,77.4153 57.5,78C 56.7562,79.0386 55.7562,79.5386 54.5,79.5 Z"/></g>
<g><path style="opacity:1" fill="#fc9300" d="M 44.5,79.5 C 46.0269,79.427 47.0269,80.0937 47.5,81.5C 45.9731,81.573 44.9731,80.9063 44.5,79.5 Z"/></g>
<g><path style="opacity:1" fill="#fc9300" d="M 54.5,79.5 C 54.0269,80.9063 53.0269,81.573 51.5,81.5C 51.9731,80.0937 52.9731,79.427 54.5,79.5 Z"/></g>
<g><path style="opacity:1" fill="#fd9300" d="M 47.5,81.5 C 48.8333,81.5 50.1667,81.5 51.5,81.5C 49.9678,83.7813 48.6344,83.7813 47.5,81.5 Z"/></g>
</svg>
