<?xml version="1.0" encoding="UTF-8"?>
<!DOCTYPE svg PUBLIC "-//W3C//DTD SVG 1.1//EN" "http://www.w3.org/Graphics/SVG/1.1/DTD/svg11.dtd">
<svg xmlns="http://www.w3.org/2000/svg" version="1.1" width="100px" height="104px" style="shape-rendering:geometricPrecision; text-rendering:geometricPrecision; image-rendering:optimizeQuality; fill-rule:evenodd; clip-rule:evenodd" xmlns:xlink="http://www.w3.org/1999/xlink">
<g><path style="opacity:0.849" fill="#b7b8b7" d="M 34.5,16.5 C 39.6484,16.7032 44.6484,17.7032 49.5,19.5C 74.136,13.2924 85.636,22.9591 84,48.5C 77.5739,65.76 66.0739,78.4267 49.5,86.5C 32.8993,78.4022 21.3993,65.7356 15,48.5C 12.1682,31.7872 18.6682,21.1205 34.5,16.5 Z M 32.5,23.5 C 38.7344,22.6827 44.4011,24.016 49.5,27.5C 63.0214,19.6859 72.5214,23.0192 78,37.5C 79.1216,45.6801 77.1216,53.0134 72,59.5C 65.2947,67.0373 57.7947,73.704 49.5,79.5C 37.4217,72.5885 28.255,62.9218 22,50.5C 18.0952,38.3539 21.5952,29.3539 32.5,23.5 Z"/></g>
<g><path style="opacity:0.798" fill="#b7b8b7" d="M 61.5,29.5 C 69.4956,31.3017 72.8289,36.135 71.5,44C 70.1667,44.6667 68.8333,44.6667 67.5,44C 66.4905,39.6571 63.9905,36.4904 60,34.5C 59.3872,32.5048 59.8872,30.8381 61.5,29.5 Z"/></g>
</svg>
