<?xml version="1.0" encoding="UTF-8"?>
<!DOCTYPE svg PUBLIC "-//W3C//DTD SVG 1.1//EN" "http://www.w3.org/Graphics/SVG/1.1/DTD/svg11.dtd">
<svg xmlns="http://www.w3.org/2000/svg" version="1.1" width="100px" height="104px" style="shape-rendering:geometricPrecision; text-rendering:geometricPrecision; image-rendering:optimizeQuality; fill-rule:evenodd; clip-rule:evenodd" xmlns:xlink="http://www.w3.org/1999/xlink">
<g><path style="opacity:0.831" fill="#afb0af" d="M 20.5,18.5 C 39.5029,18.3334 58.5029,18.5001 77.5,19C 80.9448,20.3879 83.1114,22.8879 84,26.5C 84.3333,36.8333 84.6667,47.1667 85,57.5C 87.3333,62.8333 89.6667,68.1667 92,73.5C 92.7284,76.2305 92.5617,78.8971 91.5,81.5C 90.9747,82.1924 90.3081,82.6924 89.5,83C 62.1243,83.8244 34.791,83.6577 7.5,82.5C 6.06266,80.9788 5.39599,79.1454 5.5,77C 7.40198,70.2978 9.90198,63.7978 13,57.5C 13.3333,47.1667 13.6667,36.8333 14,26.5C 15.0015,22.8009 17.1681,20.1342 20.5,18.5 Z M 22.5,23.5 C 40.5469,23.1801 58.5469,23.5135 76.5,24.5C 77.1924,25.0253 77.6924,25.6919 78,26.5C 78.4998,35.8274 78.6665,45.1607 78.5,54.5C 58.8333,54.5 39.1667,54.5 19.5,54.5C 19.3335,45.1607 19.5002,35.8274 20,26.5C 20.6979,25.3094 21.5313,24.3094 22.5,23.5 Z M 18.5,59.5 C 38.8361,59.3334 59.1694,59.5 79.5,60C 82.2953,65.7584 84.962,71.5917 87.5,77.5C 61.8333,78.8333 36.1667,78.8333 10.5,77.5C 13.1812,71.474 15.8478,65.474 18.5,59.5 Z"/></g>
<g><path style="opacity:0.733" fill="#afb0af" d="M 23.5,62.5 C 26.1873,62.3359 28.854,62.5026 31.5,63C 32.8333,64.3333 32.8333,65.6667 31.5,67C 28.5184,67.498 25.5184,67.6646 22.5,67.5C 22.366,65.7085 22.6993,64.0418 23.5,62.5 Z"/></g>
<g><path style="opacity:0.733" fill="#afb0af" d="M 36.5,62.5 C 39.1873,62.3359 41.854,62.5026 44.5,63C 45.8333,64.3333 45.8333,65.6667 44.5,67C 41.5184,67.498 38.5184,67.6646 35.5,67.5C 35.366,65.7085 35.6993,64.0418 36.5,62.5 Z"/></g>
<g><path style="opacity:0.746" fill="#afb0af" d="M 49.5,62.5 C 52.1873,62.3359 54.854,62.5026 57.5,63C 58.5171,64.0495 58.6838,65.2161 58,66.5C 55.2628,67.6105 52.4294,67.7772 49.5,67C 48.2721,65.5098 48.2721,64.0098 49.5,62.5 Z"/></g>
<g><path style="opacity:0.743" fill="#afb0af" d="M 62.5,62.5 C 65.1873,62.3359 67.854,62.5026 70.5,63C 71.5171,64.0495 71.6838,65.2161 71,66.5C 68.2628,67.6105 65.4294,67.7772 62.5,67C 61.2721,65.5098 61.2721,64.0098 62.5,62.5 Z"/></g>
<g><path style="opacity:0.802" fill="#afb0af" d="M 19.5,70.5 C 21.8568,70.3367 24.1902,70.5034 26.5,71C 27.3802,72.3561 27.7135,73.8561 27.5,75.5C 24.5,75.5 21.5,75.5 18.5,75.5C 18.366,73.7085 18.6993,72.0418 19.5,70.5 Z"/></g>
<g><path style="opacity:0.832" fill="#afb0af" d="M 32.5,70.5 C 39.175,70.3337 45.8417,70.5004 52.5,71C 53.3802,72.3561 53.7135,73.8561 53.5,75.5C 46.1667,75.5 38.8333,75.5 31.5,75.5C 31.366,73.7085 31.6993,72.0418 32.5,70.5 Z"/></g>
<g><path style="opacity:0.802" fill="#afb0af" d="M 58.5,70.5 C 60.8568,70.3367 63.1902,70.5034 65.5,71C 66.3802,72.3561 66.7135,73.8561 66.5,75.5C 63.5,75.5 60.5,75.5 57.5,75.5C 57.366,73.7085 57.6993,72.0418 58.5,70.5 Z"/></g>
<g><path style="opacity:0.802" fill="#afb0af" d="M 71.5,70.5 C 73.8568,70.3367 76.1902,70.5034 78.5,71C 79.3802,72.3561 79.7135,73.8561 79.5,75.5C 76.5,75.5 73.5,75.5 70.5,75.5C 70.366,73.7085 70.6993,72.0418 71.5,70.5 Z"/></g>
</svg>
