<?xml version="1.0" encoding="UTF-8"?>
<!DOCTYPE svg PUBLIC "-//W3C//DTD SVG 1.1//EN" "http://www.w3.org/Graphics/SVG/1.1/DTD/svg11.dtd">
<svg xmlns="http://www.w3.org/2000/svg" version="1.1" width="100px" height="104px" style="shape-rendering:geometricPrecision; text-rendering:geometricPrecision; image-rendering:optimizeQuality; fill-rule:evenodd; clip-rule:evenodd" xmlns:xlink="http://www.w3.org/1999/xlink">
<g><path style="opacity:0.828" fill="#fb9100" d="M 20.5,18.5 C 40.5923,18.0241 60.5923,18.5241 80.5,20C 82.0488,21.214 83.2155,22.714 84,24.5C 84.3333,35.1667 84.6667,45.8333 85,56.5C 87.6667,62.5 90.3333,68.5 93,74.5C 94.123,77.9563 93.2896,80.7897 90.5,83C 63.1667,83.6667 35.8333,83.6667 8.5,83C 6.40616,81.745 5.40616,79.9116 5.5,77.5C 7.76782,70.294 10.6012,63.294 14,56.5C 14.3333,45.8333 14.6667,35.1667 15,24.5C 16.3597,21.9774 18.193,19.9774 20.5,18.5 Z M 22.5,23.5 C 40.5031,23.3334 58.5031,23.5001 76.5,24C 77.3333,24.8333 78.1667,25.6667 79,26.5C 79.4998,35.8274 79.6665,45.1607 79.5,54.5C 59.5,54.5 39.5,54.5 19.5,54.5C 19.3335,45.1607 19.5002,35.8274 20,26.5C 21.045,25.6266 21.8783,24.6266 22.5,23.5 Z M 18.5,59.5 C 39.1774,59.167 59.8441,59.5003 80.5,60.5C 83.4174,66.3247 85.7507,72.3247 87.5,78.5C 62.1667,78.5 36.8333,78.5 11.5,78.5C 13.5384,72.0839 15.8717,65.7505 18.5,59.5 Z"/></g>
<g><path style="opacity:0.699" fill="#fb9100" d="M 23.5,62.5 C 26.1873,62.3359 28.854,62.5026 31.5,63C 32.3802,64.3561 32.7135,65.8561 32.5,67.5C 29.4816,67.6646 26.4816,67.498 23.5,67C 22.5868,65.5861 22.5868,64.0861 23.5,62.5 Z"/></g>
<g><path style="opacity:0.715" fill="#fb9100" d="M 37.5,62.5 C 39.8568,62.3367 42.1902,62.5034 44.5,63C 45.3802,64.3561 45.7135,65.8561 45.5,67.5C 42.4816,67.6646 39.4816,67.498 36.5,67C 35.4186,65.2894 35.752,63.7894 37.5,62.5 Z"/></g>
<g><path style="opacity:0.731" fill="#fb9100" d="M 50.5,62.5 C 52.8568,62.3367 55.1902,62.5034 57.5,63C 58.3802,64.3561 58.7135,65.8561 58.5,67.5C 54.6845,68.0815 51.3512,67.2482 48.5,65C 49.3805,64.2917 50.0472,63.4584 50.5,62.5 Z"/></g>
<g><path style="opacity:0.748" fill="#fb9100" d="M 63.5,62.5 C 65.8568,62.3367 68.1902,62.5034 70.5,63C 71.3802,64.3561 71.7135,65.8561 71.5,67.5C 68.5,67.5 65.5,67.5 62.5,67.5C 62.366,65.7085 62.6993,64.0418 63.5,62.5 Z"/></g>
<g><path style="opacity:0.699" fill="#fb9100" d="M 19.5,70.5 C 21.8568,70.3367 24.1902,70.5034 26.5,71C 28.5922,71.9525 28.9255,73.2859 27.5,75C 24.5184,75.498 21.5184,75.6646 18.5,75.5C 18.366,73.7085 18.6993,72.0418 19.5,70.5 Z"/></g>
<g><path style="opacity:0.769" fill="#fb9100" d="M 32.5,70.5 C 39.5079,70.3337 46.5079,70.5004 53.5,71C 54.8333,72.3333 54.8333,73.6667 53.5,75C 46.1742,75.4997 38.8409,75.6663 31.5,75.5C 31.366,73.7085 31.6993,72.0418 32.5,70.5 Z"/></g>
<g><path style="opacity:0.684" fill="#fb9100" d="M 58.5,70.5 C 61.1873,70.3359 63.854,70.5026 66.5,71C 67.3802,72.3561 67.7135,73.8561 67.5,75.5C 64.4816,75.6646 61.4816,75.498 58.5,75C 57.2721,73.5098 57.2721,72.0098 58.5,70.5 Z"/></g>
<g><path style="opacity:0.699" fill="#fb9100" d="M 72.5,70.5 C 74.8568,70.3367 77.1902,70.5034 79.5,71C 80.3802,72.3561 80.7135,73.8561 80.5,75.5C 77.4816,75.6646 74.4816,75.498 71.5,75C 70.2568,73.184 70.5901,71.684 72.5,70.5 Z"/></g>
</svg>
