<?xml version="1.0" encoding="UTF-8"?>
<!DOCTYPE svg PUBLIC "-//W3C//DTD SVG 1.1//EN" "http://www.w3.org/Graphics/SVG/1.1/DTD/svg11.dtd">
<svg xmlns="http://www.w3.org/2000/svg" version="1.1" width="100px" height="104px" style="shape-rendering:geometricPrecision; text-rendering:geometricPrecision; image-rendering:optimizeQuality; fill-rule:evenodd; clip-rule:evenodd" xmlns:xlink="http://www.w3.org/1999/xlink">
<g><path style="opacity:0.863" fill="#b7b8b7" d="M 42.5,15.5 C 61.8061,13.8165 69.9728,22.4832 67,41.5C 62.0675,51.8802 53.9009,55.7135 42.5,53C 30.5293,46.7647 27.0293,37.2647 32,24.5C 34.4681,20.1987 37.9681,17.1987 42.5,15.5 Z M 47.5,21.5 C 58.8089,23.2862 62.9755,29.6196 60,40.5C 54.2271,48.1028 47.5604,49.1028 40,43.5C 34.0576,33.1584 36.5576,25.825 47.5,21.5 Z"/></g>
<g><path style="opacity:0.87" fill="#b7b8b7" d="M 40.5,58.5 C 46.1764,58.3339 51.8431,58.5006 57.5,59C 64.2179,58.9645 70.0512,61.1311 75,65.5C 79.3248,76.011 75.8248,82.511 64.5,85C 51.1792,87.6235 38.1792,86.6235 25.5,82C 20.5363,77.7275 19.3696,72.5608 22,66.5C 27.2378,61.494 33.4045,58.8274 40.5,58.5 Z M 41.5,65.5 C 50.8534,64.7204 59.8534,66.0538 68.5,69.5C 71.1667,71.5 71.1667,73.5 68.5,75.5C 55.4958,80.7785 42.4958,80.7785 29.5,75.5C 26.9557,73.3888 26.9557,71.2221 29.5,69C 33.4823,67.3295 37.4823,66.1629 41.5,65.5 Z"/></g>
</svg>
