<?xml version="1.0" encoding="UTF-8"?>
<!DOCTYPE svg PUBLIC "-//W3C//DTD SVG 1.1//EN" "http://www.w3.org/Graphics/SVG/1.1/DTD/svg11.dtd">
<svg xmlns="http://www.w3.org/2000/svg" version="1.1" width="100px" height="104px" style="shape-rendering:geometricPrecision; text-rendering:geometricPrecision; image-rendering:optimizeQuality; fill-rule:evenodd; clip-rule:evenodd" xmlns:xlink="http://www.w3.org/1999/xlink">
<g><path style="opacity:0.891" fill="#fffdfa" d="M 44.5,15.5 C 64.7071,16.2644 71.8737,26.2644 66,45.5C 54.5643,57.4814 43.2309,57.4814 32,45.5C 26.1563,31.1753 30.323,21.1753 44.5,15.5 Z"/></g>
<g><path style="opacity:1" fill="#fc930a" d="M 43.5,22.5 C 57.3757,20.8739 63.2091,26.8739 61,40.5C 56.874,46.9702 51.0407,49.1369 43.5,47C 32.88,38.7989 32.88,30.6323 43.5,22.5 Z"/></g>
<g><path style="opacity:0.948" fill="#fb9100" d="M 34.5,59.5 C 44.1724,59.3335 53.8391,59.5002 63.5,60C 77.5521,62.7582 80.8854,70.0915 73.5,82C 69.7684,84.1327 65.7684,85.4661 61.5,86C 50.3609,87.1151 39.3609,86.4484 28.5,84C 21.3335,81.1659 18.8335,75.9992 21,68.5C 24.1438,63.3525 28.6438,60.3525 34.5,59.5 Z"/></g>
</svg>
